<svg width="57" height="56" viewBox="0 0 57 56" fill="none" xmlns="http://www.w3.org/2000/svg">
<path d="M23.2506 48.65C27.4039 47.0167 26.4939 42.5134 24.3939 39.6667C22.3173 36.75 19.4473 34.7434 16.5539 32.8067C14.4895 31.5055 12.6463 29.8829 11.0939 28C10.4406 27.23 9.11059 25.8067 10.4639 25.5267C11.8406 25.2467 14.2206 26.6 15.4339 27.1134C17.5573 28 19.6573 29.0267 21.6173 30.24L23.9739 26.2734C20.3339 23.87 15.6673 21.7467 11.3273 21.1167C8.85392 20.7434 6.24059 21.2567 5.40059 23.94C4.65392 26.25 5.84392 28.5834 7.19725 30.4034C10.3939 34.6734 15.3639 36.7267 19.0739 40.4134C19.8673 41.1834 20.8239 42.0934 21.2906 43.1667C21.7806 44.1934 21.6639 44.2634 20.5673 44.2634C17.6739 44.2634 14.0573 42 11.7006 40.5067L9.34392 44.4734C12.9139 46.6667 18.8873 50.0967 23.2506 48.65ZM49.1273 12.25C49.6406 11.7367 49.6406 10.8967 49.1273 10.4067L46.0939 7.37337C45.8495 7.13783 45.5233 7.00623 45.1839 7.00623C44.8445 7.00623 44.5183 7.13783 44.2739 7.37337L41.8939 9.75337L46.7473 14.6067L49.1273 12.25ZM26.1673 25.48V30.3334H31.0206L45.3706 15.9834L40.5173 11.13L26.1673 25.48Z" fill="#2091F9"/>
</svg>
