<svg width="194" height="64" viewBox="0 0 194 64" fill="none" xmlns="http://www.w3.org/2000/svg">
<g clip-path="url(#clip0_2109_2461)">
<path d="M187.716 38.8053L193.07 42.3562C191.332 44.9024 187.176 49.2712 179.99 49.2712C171.067 49.2712 164.422 42.403 164.422 33.6659C164.422 24.3685 171.138 18.061 179.239 18.061C187.387 18.061 191.379 24.5084 192.671 27.9892L193.375 29.7648L172.382 38.4082C173.979 41.5387 176.468 43.1272 179.99 43.1272C183.513 43.1272 185.955 41.3984 187.716 38.8053ZM171.255 33.1758L185.274 27.382C184.499 25.4433 182.198 24.0652 179.45 24.0652C175.952 24.0652 171.091 27.1488 171.255 33.1758Z" fill="#FF302F"/>
<path d="M154.303 2.15247H161.065V47.8462H154.303V2.1521V2.15247Z" fill="#20B15A"/>
<path d="M143.641 19.2755H150.169V47.0281C150.169 58.5447 143.336 63.287 135.258 63.287C127.65 63.287 123.071 58.1945 121.356 54.0597L127.344 51.5832C128.424 54.1295 131.031 57.1433 135.258 57.1433C140.447 57.1433 143.641 53.9427 143.641 47.9626V45.7201H143.406C141.856 47.5887 138.898 49.2706 135.14 49.2706C127.297 49.2706 120.111 42.4726 120.111 33.7126C120.111 24.9053 127.297 18.0376 135.14 18.0376C138.874 18.0376 141.856 19.6962 143.406 21.5183H143.641V19.2758V19.2755ZM144.11 33.7126C144.11 28.1993 140.424 24.1812 135.727 24.1812C130.984 24.1812 126.992 28.1993 126.992 33.7126C126.992 39.1553 130.984 43.1033 135.727 43.1033C140.424 43.127 144.111 39.1553 144.111 33.7126H144.11Z" fill="#3686F7"/>
<path d="M82.9856 33.5959C82.9856 42.5899 75.9411 49.2008 67.2994 49.2008C58.6582 49.2008 51.6133 42.5666 51.6133 33.5959C51.6133 24.5554 58.6582 17.9678 67.2994 17.9678C75.9411 17.9678 82.9856 24.5554 82.9856 33.5959ZM76.1288 33.5959C76.1288 27.9896 72.0426 24.1346 67.2994 24.1346C62.5562 24.1346 58.4701 27.9896 58.4701 33.5959C58.4701 39.1556 62.5562 43.0571 67.2994 43.0571C72.043 43.0571 76.1288 39.1556 76.1288 33.5959Z" fill="#FF302F"/>
<path d="M117.247 33.6659C117.247 42.6599 110.202 49.2708 101.561 49.2708C92.9195 49.2708 85.875 42.6595 85.875 33.6659C85.875 24.6254 92.9195 18.061 101.561 18.061C110.202 18.061 117.247 24.6022 117.247 33.6659ZM110.367 33.6659C110.367 28.0597 106.281 24.2047 101.537 24.2047C96.7942 24.2047 92.708 28.0597 92.708 33.6659C92.708 39.2257 96.7942 43.1272 101.537 43.1272C106.304 43.1272 110.367 39.2024 110.367 33.6659Z" fill="#FFBA40"/>
<path d="M25.8306 42.4262C15.9914 42.4262 8.28949 34.5302 8.28949 24.7419C8.28949 14.954 15.9914 7.05803 25.8306 7.05803C31.1377 7.05803 35.0121 9.13703 37.8769 11.8003L42.5971 7.1049C38.6052 3.29715 33.2747 0.399902 25.8306 0.399902C12.3519 0.400277 1.00977 11.3334 1.00977 24.7419C1.00977 38.1512 12.3519 49.0839 25.8306 49.0839C33.1103 49.0839 38.6052 46.7012 42.9025 42.2627C47.317 37.8707 48.6789 31.7034 48.6789 26.7043C48.6789 25.139 48.4912 23.5273 48.2797 22.3359H25.8306V28.8302H41.8221C41.3524 32.8952 40.061 35.675 38.1589 37.5669C35.8576 39.8799 32.2181 42.4262 25.8306 42.4262Z" fill="#3686F7"/>
</g>
<defs>
<clipPath id="clip0_2109_2461">
<rect width="193" height="63" fill="white" transform="translate(0.728516 0.303223)"/>
</clipPath>
</defs>
</svg>
