<svg width="42" height="42" viewBox="0 0 42 42" fill="none" xmlns="http://www.w3.org/2000/svg">
<path d="M35.738 4.98962H6.27888C5.57042 4.98962 4.99805 5.562 4.99805 6.27046V35.7296C4.99805 36.438 5.57042 37.0104 6.27888 37.0104H35.738C36.4465 37.0104 37.0188 36.438 37.0188 35.7296V6.27046C37.0188 5.562 36.4465 4.98962 35.738 4.98962ZM14.4962 32.2753H9.74513V16.9934H14.4962V32.2753ZM12.1227 14.9041C11.578 14.9041 11.0456 14.7425 10.5927 14.44C10.1399 14.1374 9.78693 13.7073 9.5785 13.2041C9.37007 12.7009 9.31554 12.1472 9.4218 11.613C9.52805 11.0789 9.79032 10.5882 10.1754 10.203C10.5606 9.81792 11.0513 9.55565 11.5854 9.4494C12.1196 9.34314 12.6733 9.39768 13.1765 9.6061C13.6797 9.81453 14.1098 10.1675 14.4124 10.6203C14.7149 11.0732 14.8765 11.6056 14.8765 12.1503C14.8725 13.6713 13.6397 14.9041 12.1227 14.9041ZM32.2838 32.2753H27.5367V24.8425C27.5367 23.0694 27.5047 20.7919 25.0671 20.7919C22.5975 20.7919 22.2172 22.7211 22.2172 24.7144V32.2753H17.4741V16.9934H22.0291V19.0828H22.0931C22.7255 17.882 24.2746 16.6132 26.5881 16.6132C31.3992 16.6132 32.2838 19.7792 32.2838 23.8939V32.2753Z" fill="white"/>
</svg>
