<svg width="42" height="42" viewBox="0 0 42 42" fill="none" xmlns="http://www.w3.org/2000/svg">
<path d="M37.6865 10.6854C36.4617 11.2137 35.1288 11.5939 33.7559 11.742C35.1813 10.8952 36.2487 9.55742 36.7579 7.9796C35.4203 8.77527 33.9551 9.33321 32.4271 9.62867C31.7884 8.94593 31.016 8.40203 30.158 8.03086C29.3 7.65969 28.3747 7.4692 27.4398 7.47127C23.6574 7.47127 20.6154 10.5373 20.6154 14.2997C20.6154 14.828 20.6794 15.3564 20.7835 15.8647C15.1198 15.5685 10.0685 12.8628 6.71037 8.72008C6.09848 9.76522 5.77782 10.9552 5.78177 12.1663C5.78177 14.5359 6.98655 16.6252 8.82374 17.854C7.74106 17.8114 6.68372 17.5138 5.73774 16.9854V17.0695C5.73774 20.3877 8.08326 23.1374 11.2093 23.7698C10.6223 23.9223 10.0185 24.0003 9.41212 24.002C8.96784 24.002 8.54756 23.958 8.12329 23.8979C8.98785 26.6037 11.5055 28.569 14.5034 28.633C12.1579 30.4702 9.22 31.5509 6.02993 31.5509C5.45756 31.5509 4.92922 31.5309 4.38086 31.4668C7.40682 33.4081 10.9972 34.5288 14.8637 34.5288C27.4158 34.5288 34.2843 24.1301 34.2843 15.1042C34.2843 14.808 34.2843 14.5118 34.2642 14.2156C35.5931 13.243 36.7579 12.0382 37.6865 10.6854Z" fill="white"/>
</svg>
